<?xml version="1.0" encoding="utf-8"?>
<!-- Generator: Adobe Illustrator 17.1.0, SVG Export Plug-In . SVG Version: 6.00 Build 0)  -->
<!DOCTYPE svg PUBLIC "-//W3C//DTD SVG 1.1//EN" "http://www.w3.org/Graphics/SVG/1.1/DTD/svg11.dtd">
<svg version="1.1" id="Layer_1" xmlns="http://www.w3.org/2000/svg" xmlns:xlink="http://www.w3.org/1999/xlink" x="0px" y="0px"
	 viewBox="0 0 1190.6 841.9" enable-background="new 0 0 1190.6 841.9" xml:space="preserve">
<g>
	<polygon fill="#FFFFFF" points="180.7,448.4 424.6,331.6 143.9,395.1 	"/>
	<polygon fill="#FFFFFF" points="202.4,479.7 262.4,566.6 424.6,331.6 	"/>
</g>
<g>
	<g>
		<g>
			<path fill="#FFFFFF" d="M520.7,509.3l15-54.4h22.5L531,535.6h-20.6l-27.2-80.7h22.5L520.7,509.3z"/>
			<path fill="#FFFFFF" d="M600,537.1c-6.3,0-11.9-1-16.8-3.1c-4.9-2-9.1-4.8-12.6-8.4c-3.5-3.5-6.1-7.7-7.9-12.4
				c-1.8-4.7-2.7-9.8-2.7-15.3v-2.9c0-6.1,0.9-11.7,2.6-16.8c1.8-5.1,4.3-9.5,7.5-13.2c3.3-3.7,7.2-6.6,11.9-8.6
				c4.7-2.1,9.9-3.1,15.6-3.1c5.8,0,10.9,1,15.4,2.9c4.4,1.9,8.1,4.6,11.1,8.1c3,3.5,5.3,7.6,6.8,12.5c1.5,4.9,2.3,10.3,2.3,16.3
				v9.2h-51.4c0.3,2.6,1.1,5,2.1,7.2c1.1,2.1,2.4,4,4.1,5.5c1.7,1.5,3.6,2.7,5.9,3.5c2.2,0.8,4.7,1.3,7.5,1.3
				c3.9,0,7.6-0.7,10.9-2.2c3.3-1.5,6.2-3.7,8.6-6.8l10.6,11.9c-1.3,1.8-2.9,3.6-4.9,5.4c-1.9,1.7-4.2,3.3-6.9,4.7
				c-2.6,1.4-5.6,2.5-8.9,3.3C607.6,536.7,604,537.1,600,537.1z M597.6,470.9c-2.3,0-4.4,0.4-6.2,1.2c-1.8,0.8-3.3,2-4.5,3.4
				s-2.3,3.2-3.1,5.3c-0.8,2-1.4,4.3-1.7,6.8h30v-1.7c-0.1-2.1-0.4-4.1-0.9-6c-0.6-1.8-1.4-3.4-2.6-4.8c-1.2-1.3-2.7-2.4-4.5-3.1
				C602.2,471.2,600.1,470.9,597.6,470.9z"/>
			<path fill="#FFFFFF" d="M661.5,454.9l0.7,9.3c2.8-3.5,6.1-6.2,10.1-8c3.9-1.9,8.3-2.8,13.1-2.8c3.8,0,7.3,0.5,10.4,1.6
				c3.1,1.1,5.8,2.8,8.1,5.3c2.2,2.4,4,5.6,5.2,9.5c1.2,3.9,1.8,8.8,1.8,14.5v51.3h-21.6v-51.5c0-2.6-0.3-4.7-0.9-6.4
				c-0.6-1.7-1.4-3-2.5-4c-1.1-1-2.4-1.7-4-2.1c-1.6-0.4-3.4-0.6-5.5-0.6c-3.2,0-5.9,0.7-8.2,2.1c-2.3,1.4-4.1,3.3-5.5,5.7v56.9
				h-21.6v-80.7H661.5z"/>
			<path fill="#FFFFFF" d="M749.2,435.1v19.8H763v15.8h-13.8V511c0,1.7,0.2,3.1,0.5,4.2c0.3,1.1,0.9,2,1.6,2.6
				c0.7,0.6,1.6,1,2.6,1.3c1,0.2,2.2,0.3,3.6,0.3c1.3,0,2.5,0,3.5-0.2c1.1-0.1,2-0.2,2.8-0.4v16.3c-1.8,0.5-3.7,1-5.9,1.4
				c-2.1,0.4-4.5,0.6-7.2,0.6c-3.5,0-6.7-0.4-9.5-1.3c-2.8-0.9-5.3-2.2-7.3-4.1c-2-1.9-3.6-4.4-4.7-7.4c-1.1-3-1.6-6.7-1.6-11v-42.6
				h-11.8v-15.8h11.8v-19.8H749.2z"/>
			<path fill="#FFFFFF" d="M819.5,527.4c-2.5,3.1-5.6,5.5-9.2,7.2c-3.6,1.7-7.9,2.5-12.8,2.5c-4,0-7.6-0.6-10.9-1.7
				c-3.3-1.1-6.1-2.9-8.5-5.3c-2.4-2.4-4.2-5.5-5.5-9.3c-1.3-3.8-1.9-8.4-1.9-13.7v-52.2h21.6v52.4c0,2.2,0.3,4.2,0.9,5.7
				s1.4,2.9,2.4,3.8c1,1,2.2,1.7,3.6,2.1c1.4,0.4,2.9,0.7,4.6,0.7c3.9,0,7-0.7,9.5-2c2.4-1.3,4.3-3.2,5.6-5.6v-57.1h21.6v80.7h-20.3
				L819.5,527.4z"/>
			<path fill="#FFFFFF" d="M898.2,475.1c-1.1-0.2-2.4-0.3-3.8-0.4c-1.5-0.1-2.8-0.2-3.9-0.2c-4.2,0-7.6,0.7-10.2,2.1
				c-2.6,1.4-4.5,3.5-5.8,6.2v52.8h-21.6v-80.7h20.4l0.6,9.6c2-3.5,4.5-6.2,7.5-8.2c3-2,6.5-2.9,10.4-2.9c1.1,0,2.4,0.1,3.6,0.3
				s2.3,0.4,3.1,0.7L898.2,475.1z"/>
			<path fill="#FFFFFF" d="M940.4,537.1c-6.3,0-11.9-1-16.8-3.1c-4.9-2-9.1-4.8-12.6-8.4c-3.5-3.5-6.1-7.7-7.9-12.4
				c-1.8-4.7-2.7-9.8-2.7-15.3v-2.9c0-6.1,0.9-11.7,2.6-16.8c1.8-5.1,4.3-9.5,7.5-13.2c3.3-3.7,7.2-6.6,11.9-8.6
				c4.7-2.1,9.9-3.1,15.6-3.1c5.8,0,10.9,1,15.4,2.9c4.4,1.9,8.1,4.6,11.1,8.1c3,3.5,5.3,7.6,6.8,12.5c1.5,4.9,2.3,10.3,2.3,16.3
				v9.2h-51.4c0.3,2.6,1.1,5,2.1,7.2s2.4,4,4.1,5.5c1.7,1.5,3.6,2.7,5.9,3.5c2.2,0.8,4.7,1.3,7.5,1.3c3.9,0,7.6-0.7,10.9-2.2
				c3.3-1.5,6.2-3.7,8.6-6.8l10.6,11.9c-1.3,1.8-2.9,3.6-4.9,5.4c-1.9,1.7-4.2,3.3-6.9,4.7c-2.6,1.4-5.6,2.5-8.9,3.3
				C948,536.7,944.4,537.1,940.4,537.1z M938,470.9c-2.3,0-4.4,0.4-6.2,1.2c-1.8,0.8-3.3,2-4.5,3.4s-2.3,3.2-3.1,5.3
				c-0.8,2-1.4,4.3-1.7,6.8h30v-1.7c-0.1-2.1-0.4-4.1-0.9-6c-0.6-1.8-1.4-3.4-2.6-4.8c-1.2-1.3-2.7-2.4-4.5-3.1
				C942.6,471.2,940.5,470.9,938,470.9z"/>
			<path fill="#FFFFFF" d="M1025.7,513.3c0-1.1-0.2-2.2-0.7-3.1c-0.4-0.9-1.3-1.8-2.5-2.6c-1.2-0.8-2.9-1.6-5.1-2.4
				c-2.1-0.7-4.9-1.5-8.3-2.2c-4.1-0.9-7.9-2-11.4-3.4c-3.5-1.3-6.5-3-9.1-5c-2.6-2-4.6-4.3-6-6.9c-1.4-2.6-2.2-5.7-2.2-9.2
				c0-3.4,0.7-6.6,2.2-9.6c1.5-3,3.6-5.7,6.3-8c2.8-2.3,6.1-4.1,10.1-5.5c4-1.3,8.5-2,13.5-2c5.2,0,9.9,0.6,14.1,1.9
				c4.2,1.3,7.7,3.1,10.6,5.4c2.9,2.3,5.2,5.1,6.7,8.2c1.6,3.2,2.4,6.7,2.4,10.4h-21.6c0-3.1-1-5.6-3-7.6c-2-2-5.1-3-9.3-3
				c-3.6,0-6.4,0.8-8.4,2.5c-2,1.6-3,3.7-3,6.3c0,1.2,0.3,2.2,0.8,3.2c0.5,0.9,1.4,1.8,2.5,2.5c1.2,0.8,2.7,1.5,4.6,2.1
				c1.9,0.7,4.3,1.2,7.1,1.8c4.4,0.8,8.4,1.9,12.2,3.1c3.7,1.2,6.9,2.8,9.7,4.8c2.7,2,4.8,4.4,6.4,7.2s2.3,6.2,2.3,10.2
				c0,3.6-0.8,6.9-2.4,9.9c-1.6,3-3.9,5.6-6.8,7.8c-3,2.2-6.5,3.9-10.7,5.1c-4.2,1.2-8.8,1.9-14,1.9c-5.7,0-10.7-0.8-15-2.4
				c-4.3-1.6-8-3.7-10.9-6.3c-3-2.6-5.2-5.5-6.7-8.7c-1.5-3.2-2.2-6.5-2.2-9.8h20.4c0.1,2.1,0.6,3.9,1.4,5.4
				c0.8,1.5,1.9,2.7,3.2,3.7c1.3,0.9,2.9,1.6,4.7,2.1c1.8,0.5,3.6,0.7,5.6,0.7c4.1,0,7.2-0.8,9.4-2.4
				C1024.7,517.9,1025.7,515.8,1025.7,513.3z"/>
		</g>
	</g>
	<g>
		<g>
			<path fill="#FFFFFF" d="M622.5,428.2c-7.1,0-13-5.8-13-13v-4.3c0-7.2,5.8-13.1,13-13.1h10.2V394c0-3.9-3.2-7.1-7.1-7.1h-3.2
				c-2.7,0-5.2,1.6-6.4,4.1c-0.1,0.2-0.3,0.4-0.6,0.4c-0.1,0.1-0.2,0.1-0.3,0.1c-0.1,0-0.3-0.1-0.4-0.1l-3.5-2
				c-0.4-0.2-0.5-0.8-0.4-1.2c2.3-4.4,6.7-7.2,11.6-7.2h3.2c7.1,0,13,5.8,13,13v21.2c0,7.2-5.8,13-13,13H622.5z M622.5,403.7
				c-3.9,0-7.1,3.2-7.1,7.1v4.4c0,3.9,3.2,7.1,7.1,7.1h3.2c3.9,0,7.1-3.2,7.1-7.1v-11.5H622.5z"/>
			<path fill="#FFFFFF" d="M678.9,428.2c-3.5,0-6.8-1.4-9.2-3.9c-2.4-2.6-3.8-6-3.8-9.8v-21.2c0-3.1,1.4-6.2,3.8-8.5
				c2.5-2.4,5.7-3.7,9.2-3.7h3.1c7.2,0,13,5.8,13,13v3.6c0,7.2-5.8,13.1-13,13.1h-10.2v4.5c0,3.9,3.2,7.1,7.1,7.1h3.1
				c2.6,0,5-1.4,6.2-3.7c0.1-0.2,0.3-0.4,0.5-0.4c0.1,0,0.2-0.1,0.3-0.1c0.1,0,0.3,0.1,0.4,0.1l3.5,2c0.4,0.3,0.6,0.8,0.4,1.2
				c-2.3,4.1-6.6,6.7-11.3,6.7H678.9z M678.9,386.9c-3.9,0-7.1,3.2-7.1,7.1v10.8H682c4,0,7.1-3.2,7.1-7.1V394c0-3.9-3.2-7.1-7.1-7.1
				H678.9z"/>
			<path fill="#FFFFFF" d="M587.5,443c-4.7,0-9.1-2.7-11.4-6.9c-0.3-0.4-0.1-1,0.3-1.2l3.5-2c0.1-0.1,0.3-0.1,0.5-0.1
				c0.1,0,0.2,0,0.2,0c0.3,0.1,0.5,0.2,0.5,0.4c1.3,2.4,3.6,3.9,6.3,3.9h3.1c3.9,0,7.1-3.1,7.1-7.1v-4l-0.2,0.1
				c-2.1,1.3-4.5,2-6.9,2h-3.1c-7.1,0-12.9-5.8-12.9-13V394c0-7.2,5.8-13,12.9-13h3.1c7.1,0,13,5.8,13,13v36c0,7.1-5.8,13-13,13
				H587.5z M587.5,386.9c-3.9,0-7.1,3.2-7.1,7.1v21.2c0,3.9,3.2,7.1,7.1,7.1h3.1c3.9,0,7.1-3.2,7.1-7.1V394c0-3.9-3.2-7.1-7.1-7.1
				H587.5z"/>
			<path fill="#FFFFFF" d="M517.6,428.2c-3.5,0-6.7-1.4-9.2-3.9c-2.4-2.5-3.8-6-3.8-9.8v-21.2c0-3.1,1.4-6.2,3.8-8.6
				c2.5-2.4,5.8-3.7,9.2-3.7h3.2c7.1,0,13,5.8,13,13v3.6c0,7.2-5.9,13.1-13,13.1h-10.2v4.5c0,3.9,3.2,7.1,7.1,7.1h3.2
				c2.4,0,4.7-1.2,6-3.3c0.2-0.3,0.5-0.4,0.8-0.4c0.2,0,0.3,0,0.4,0.1l3.5,2c0.2,0.1,0.4,0.3,0.4,0.6c0.1,0.2,0,0.5-0.1,0.7
				c-2.4,3.9-6.5,6.2-11,6.2H517.6z M517.6,386.9c-3.9,0-7.1,3.2-7.1,7.1v10.8h10.2c3.9,0,7.1-3.2,7.1-7.1V394
				c0-3.9-3.2-7.1-7.1-7.1H517.6z"/>
			<path fill="#FFFFFF" d="M657.5,428.2c-7.1,0-12.9-5.8-12.9-13v-41.7c0-1.5,1.2-2.7,2.6-2.7h2.3c0.6,0,1,0.4,1,0.9v9.2h8.8
				c0.5,0,0.9,0.4,0.9,0.9v4.1c0,0.5-0.4,0.9-0.9,0.9h-8.8v28.3c0,3.9,3.1,7.1,7.1,7.1h3.7c0.5,0,0.9,0.4,0.9,0.9v4.1
				c0,0.5-0.4,0.9-0.9,0.9H657.5z"/>
			<path fill="#FFFFFF" d="M552.6,428.2c-7.1,0-13-5.8-13-13V394c0-7.1,5.8-13,13-13h3.1c2.5,0,4.8,0.7,6.9,1.9l0.2,0.1v-9.9l0,0v-2
				c0-1.5,1.2-2.7,2.6-2.7h2.4c0.5,0,0.9,0.4,0.9,0.9v45.7c0,7.2-5.8,13-13,13H552.6z M552.6,386.9c-3.9,0-7.1,3.2-7.1,7.1v21.2
				c0,3.9,3.2,7.1,7.1,7.1h3.1c3.9,0,7.1-3.2,7.1-7.1V394c0-3.9-3.2-7.1-7.1-7.1H552.6z"/>
			<path fill="#FFFFFF" d="M484.1,428.2c-0.5,0-0.9-0.4-0.9-0.9V394c0-7.2,5.8-12.9,13-12.9h5.5c0.5,0,0.9,0.4,0.9,0.9v2.3
				c0,1.4-1.2,2.6-2.6,2.6h-3.8c-3.9,0-7.1,3.2-7.1,7.1v33.3c0,0.5-0.4,0.9-0.9,0.9H484.1z"/>
		</g>
	</g>
</g>
</svg>
