<?xml version="1.0" encoding="utf-8"?>
<!-- Generator: Adobe Illustrator 17.1.0, SVG Export Plug-In . SVG Version: 6.00 Build 0)  -->
<!DOCTYPE svg PUBLIC "-//W3C//DTD SVG 1.1//EN" "http://www.w3.org/Graphics/SVG/1.1/DTD/svg11.dtd">
<svg version="1.1" id="Layer_1" xmlns="http://www.w3.org/2000/svg" xmlns:xlink="http://www.w3.org/1999/xlink" x="0px" y="0px"
	 viewBox="0 0 314.6 436.5" enable-background="new 0 0 314.6 436.5" xml:space="preserve">
<rect x="0" fill="#62676A" width="314.4" height="436.5"/>
<polygon fill="#555A5D" points="0,244.1 5.7,292 102.6,280.5 135.2,245 63.7,265.9 "/>
<polygon fill="#494C51" points="214.8,212 262.5,218.3 257.6,212.8 314.6,181.7 "/>
<polygon fill="#4E5156" points="314.6,107.4 314.6,154.4 267.2,179.1 293.6,149 256.2,135.5 222.9,176.7 224.8,112.4 240,123 
	307.9,132.9 298.2,104.9 "/>
<polygon fill="#3D4047" points="314.6,335.4 314.6,382.5 268.1,406.6 293.1,375.9 256.2,362.7 224.2,404 225.4,339.2 239.4,350.1 
	308.4,360.6 298.6,332.8 "/>
<polygon fill="#43454B" points="0,395.1 45.8,369.5 38.1,337.4 16.6,359.9 0,358.6 "/>
<polygon fill="#717A78" points="164.7,212.8 135.2,245 43.5,212.8 25.4,182.7 64.8,159.7 91,200.1 "/>
<polygon fill="#494C51" points="143.1,75.3 157.4,115.7 103.4,83.3 "/>
<polygon fill="#4B4E53" points="114.3,40.8 164.7,71 63.7,91.2 "/>
<polygon fill="#3F4249" points="6.4,64.4 103.4,51.6 0,16.6 "/>
<polygon fill="#4A4D52" points="46.2,141.5 47.7,59 63.7,91.2 83.5,134.7 "/>
<polygon fill="#383B42" points="103.4,51.6 63.7,91.2 47.7,59 "/>
<polygon fill="#45484E" points="103.4,83.3 122.5,169 157.4,115.7 "/>
<polygon fill="#4B4E53" points="91,200.1 164.7,212.8 122.5,169 "/>
<polygon fill="#5A5F62" points="64.8,159.7 119.2,154.3 122.5,169 91,200.1 "/>
<polygon fill="#373A41" points="83.5,134.7 119.2,154.3 64.8,159.7 "/>
<polygon fill="#555A5E" points="25.4,182.7 64.8,159.7 46.2,141.5 "/>
<polygon fill="#3B3E45" points="63.7,91.2 103.4,83.3 119.2,154.3 83.5,134.7 "/>
<polygon fill="#41444B" points="164.7,71 224.8,112.4 164.7,100 143.1,75.3 "/>
<polygon fill="#34373E" points="220.8,18.9 224.8,112.4 164.7,71 "/>
<polygon fill="#42444A" points="165.9,40.5 114.3,40.8 164.7,71 220.8,18.9 "/>
<polygon fill="#52565B" points="222.9,176.7 224.8,112.4 190,125.2 "/>
<polygon fill="#62676A" points="164.7,212.8 222.9,176.7 190,125.2 "/>
<polygon fill="#505458" points="190,125.2 164.7,212.8 122.5,169 157.4,115.7 164.7,134.7 "/>
<polygon fill="#2A2A30" points="6.4,64.4 46.8,109.8 47.7,59 "/>
<polygon fill="#42454C" points="8.4,105 38.6,109.8 17.2,132.6 "/>
<polygon fill="#4F5257" points="0,131 0,168.2 46.2,141.5 38.6,109.8 17.2,132.6 "/>
<polygon fill="#46494E" points="0,181.5 25.4,182.7 46.2,141.5 0,168.2 "/>
<polygon fill="#34373E" points="8.4,105 0,103.9 0,131 17.2,132.6 "/>
<polygon fill="#32343C" points="6.4,64.4 0,67.6 0,103.9 8.4,105 38.6,109.8 46.2,141.5 46.8,109.8 "/>
<polygon fill="#2D2D33" points="0,16.6 0,67.6 6.4,64.4 "/>
<polygon fill="#1C1B20" points="23.2,0 0,16.6 0,0 "/>
<polygon fill="#25242A" points="64.1,38.3 0,16.6 23.2,0 48.6,0 "/>
<polygon fill="#33353C" points="83.5,0 135.2,18.1 64.1,38.3 48.6,0 "/>
<polygon fill="#3F4249" points="103.4,51.6 114.3,40.8 135.2,18.1 64.1,38.3 "/>
<polygon fill="#393C43" points="151.8,0 135.2,18.1 83.5,0 "/>
<polygon fill="#363940" points="220.8,18.9 165.9,40.5 114.3,40.8 135.2,18.1 151.8,0 188.6,0 "/>
<polygon fill="#34353B" points="217.5,0 188.6,0 220.8,18.9 "/>
<polygon fill="#3A3D44" points="221.9,44.2 296.7,64.8 266.5,0 255.1,0 "/>
<polygon fill="#28272D" points="217.5,0 255.1,0 220.8,18.9 "/>
<polygon fill="#26252B" points="221.9,44.2 255.1,0 220.8,18.9 "/>
<polygon fill="#373A41" points="296.7,64.8 224,93.5 221.9,44.2 "/>
<polygon fill="#31343B" points="314.6,107.4 224,93.5 296.7,64.8 315.1,86.1 "/>
<polygon fill="#29282E" points="291.8,17 296.7,64.8 266.5,0 273.3,0 "/>
<polygon fill="#1D1C21" points="314.6,0 291.8,17 273.3,0 "/>
<polygon fill="#232227" points="314.6,24.7 314.6,0 291.8,17 "/>
<polygon fill="#26252B" points="314.6,63.4 315.1,86.1 296.7,64.8 "/>
<polygon fill="#373A41" points="314.6,24.7 314.6,63.4 296.7,64.8 291.8,17 "/>
<polygon fill="#33353C" points="224.8,112.4 240,123 298.2,104.9 224,93.5 "/>
<polygon fill="#3A3D44" points="307.9,132.9 240,123 298.2,104.9 "/>
<polygon fill="#5D6265" points="222.9,176.7 314.6,181.7 214.8,212 "/>
<polygon fill="#4D5055" points="256.2,135.5 293.6,149 258.6,178.6 "/>
<polygon fill="#484C51" points="267.2,179.1 258.6,178.6 293.6,149 "/>
<polygon fill="#46474C" points="314.6,154.4 267.2,179.1 314.6,181.7 "/>
<polygon fill="#616669" points="256.2,135.5 222.9,176.7 258.6,178.6 "/>
<polygon fill="#484B51" points="0,181.5 0,191.5 25.4,182.7 "/>
<polygon fill="#44464B" points="43.5,212.8 25.4,182.7 0,191.5 0,212.8 "/>
<polygon fill="#404248" points="63.7,265.9 43.5,212.8 0,244.1 "/>
<polygon fill="#31333A" points="0,212.8 0,244.1 43.5,212.8 "/>
<polygon fill="#E21836" points="63.7,265.9 135.2,245 43.5,212.8 "/>
<polygon fill="#4D5055" points="63.7,318.6 102.6,280.5 48,287 "/>
<polygon fill="#33343C" points="48,339.1 48,287 5.7,292 "/>
<polygon fill="#35383F" points="0,331.1 48,339.1 5.7,292 0,294.5 "/>
<polygon fill="#404349" points="0,244.1 5.7,292 0,294.5 "/>
<polygon fill="#64696C" points="164.7,298.6 63.7,318.6 102.6,280.5 113.5,268.6 "/>
<polygon fill="#707978" points="214.8,212 221.2,245 164.7,212.8 222.9,176.7 "/>
<polygon fill="#6C7272" points="113.5,268.6 164.7,268 221.2,245 164.7,212.8 135.2,245 "/>
<polygon fill="#696F71" points="164.7,298.6 221.2,245 164.7,268 113.5,268.6 "/>
<polygon fill="#42444A" points="257.6,212.8 314.6,212.8 314.6,181.7 "/>
<polygon fill="#34363D" points="314.6,212.8 314.6,228.2 291.8,243.8 262.5,218.3 257.6,212.8 "/>
<polygon fill="#555A5E" points="221.2,245 262.5,218.3 214.8,212 "/>
<polygon fill="#383B42" points="291.8,243.8 314.6,252.2 314.6,228.2 "/>
<polygon fill="#4D5055" points="314.6,290.5 297.1,292.3 291.8,243.8 314.6,252.2 "/>
<polygon fill="#44464C" points="262.5,218.3 297.1,292.3 291.8,243.8 "/>
<polygon fill="#494B50" points="221.2,245 221.2,271.8 262.5,218.3 "/>
<polygon fill="#595E61" points="297.1,292.3 221.2,271.8 262.5,218.3 "/>
<polygon fill="#313237" points="314.6,290.5 314.6,311.3 297.1,292.3 "/>
<polygon fill="#474A4F" points="164.7,298.6 225.4,339.2 221.2,271.8 221.2,245 "/>
<polygon fill="#474A4F" points="297.1,292.3 224.2,320.7 221.2,271.8 "/>
<polygon fill="#383B42" points="314.6,311.3 314.6,335.4 224.2,320.7 297.1,292.3 "/>
<polygon fill="#313339" points="225.4,339.2 239.4,350.1 298.6,332.8 224.2,320.7 "/>
<polygon fill="#41444B" points="164.7,298.6 225.4,339.2 164.7,327.7 143.6,302.8 "/>
<polygon fill="#34353D" points="239.4,350.1 308.4,360.6 298.6,332.8 "/>
<polygon fill="#35383F" points="63.7,318.6 84.2,362.7 120,382.3 104,310.6 "/>
<polygon fill="#494C51" points="143.6,302.8 158,343.7 104,310.6 "/>
<polygon fill="#27262C" points="84.2,362.7 65,386.4 120,382.3 "/>
<polygon fill="#3A3D44" points="158,343.7 104,310.6 120,382.3 122.9,396.7 "/>
<polygon fill="#2E2F35" points="164.7,362.7 190.9,352.5 165.6,436.5 160.3,436.5 122.9,396.7 158,343.7 "/>
<polygon fill="#40434A" points="225.4,339.2 224.2,404 190.9,352.5 "/>
<polygon fill="#383B42" points="165.6,436.5 224.2,404 190.9,352.5 "/>
<polygon fill="#35373F" points="256.2,362.7 259.1,406.1 293.1,375.9 "/>
<polygon fill="#3F4349" points="224.2,404 259.1,406.1 256.2,362.7 "/>
<polygon fill="#2E3035" points="293.1,375.9 268.1,406.6 259.1,406.1 "/>
<polygon fill="#34353D" points="165.6,436.5 227.7,436.5 314.6,410.3 268.1,406.6 259.1,406.1 224.2,404 "/>
<polygon fill="#2F3035" points="314.6,382.5 314.6,410.3 268.1,406.6 "/>
<polygon fill="#26252B" points="227.7,436.5 314.6,436.5 314.6,410.3 "/>
<polygon fill="#201F24" points="122.9,396.7 160.3,436.5 142.6,436.5 92,427.5 "/>
<polygon fill="#33363D" points="65,386.4 92,427.5 122.9,396.7 120,382.3 "/>
<polygon fill="#373A41" points="84.2,362.7 45.8,369.5 65,386.4 "/>
<polygon fill="#44474D" points="48,287 63.7,318.6 84.2,362.7 45.8,369.5 48,339.1 "/>
<polygon fill="#393C43" points="65,386.4 24.1,410 45.8,369.5 "/>
<polygon fill="#3A3D43" points="48,339.1 45.8,369.5 38.1,337.4 "/>
<polygon fill="#303238" points="24.1,410 0,407.7 0,395.1 45.8,369.5 "/>
<polygon fill="#3D4047" points="38.1,337.4 16.6,359.9 8.2,332.4 "/>
<polygon fill="#313238" points="0,331.1 8.2,332.4 16.6,359.9 0,358.6 "/>
<polygon fill="#2F3136" points="24.1,410 0,407.7 0,417.9 "/>
<polygon fill="#3D4047" points="65,386.4 92,427.5 142.6,436.5 41.3,436.5 24.1,410 "/>
<polygon fill="#26252B" points="0,417.9 0,436.5 41.3,436.5 24.1,410 "/>
<polygon fill="#4D5055" points="83.5,134.7 64.8,159.7 46.2,141.5 "/>
<polygon fill="#34373E" points="164.7,134.7 224.8,112.4 164.7,100 143.1,75.3 157.4,115.7 "/>
<polygon fill="#34373E" points="225.4,339.2 164.7,362.7 143.6,302.8 164.7,327.7 "/>
</svg>