<?xml version="1.0" encoding="utf-8"?>
<!-- Generator: Adobe Illustrator 17.1.0, SVG Export Plug-In . SVG Version: 6.00 Build 0)  -->
<!DOCTYPE svg PUBLIC "-//W3C//DTD SVG 1.1//EN" "http://www.w3.org/Graphics/SVG/1.1/DTD/svg11.dtd">
<svg version="1.1" id="Layer_1" xmlns="http://www.w3.org/2000/svg" xmlns:xlink="http://www.w3.org/1999/xlink" x="0px" y="0px"
	 viewBox="0 0 527.3 191.7" enable-background="new 0 0 527.3 191.7" xml:space="preserve">
<g>
	<path fill="#FFFFFF" d="M179.2,55.8c-6.7,0-12.1-5.4-12.1-12.1v-4.1c0-6.8,5.4-12.2,12.1-12.2h9.6v-3.6c0-3.7-3-6.6-6.6-6.6h-2.9
		c-2.5,0-4.9,1.5-6,3.8c-0.1,0.2-0.3,0.4-0.5,0.4c-0.1,0-0.2,0-0.3,0c-0.1,0-0.3,0-0.4-0.1l-3.3-1.9c-0.4-0.2-0.5-0.7-0.3-1.1
		c2.1-4.1,6.2-6.7,10.8-6.7h2.9c6.7,0,12.1,5.4,12.1,12.1v19.9c0,6.7-5.5,12.1-12.1,12.1H179.2z M179.2,32.9c-3.7,0-6.6,3-6.6,6.6
		v4.2c0,3.7,3,6.6,6.6,6.6h2.9c3.7,0,6.6-3,6.6-6.6V32.9H179.2z"/>
	<path fill="#FFFFFF" d="M232.1,55.8c-3.3,0-6.3-1.3-8.6-3.6c-2.3-2.4-3.6-5.7-3.6-9.2V23.1c0-2.9,1.3-5.8,3.6-8
		c2.3-2.2,5.4-3.5,8.6-3.5h2.9c6.7,0,12.1,5.5,12.1,12.1v3.4c0,6.8-5.4,12.2-12.1,12.2h-9.6v4.3c0,3.7,3,6.6,6.6,6.6h2.9
		c2.4,0,4.6-1.3,5.8-3.5c0.1-0.2,0.3-0.4,0.5-0.4c0.1,0,0.2,0,0.2,0c0.2,0,0.3,0,0.4,0.1l3.3,1.9c0.4,0.2,0.5,0.7,0.3,1.1
		c-2.2,3.9-6.2,6.3-10.6,6.3H232.1z M232.1,17.2c-3.7,0-6.6,3-6.6,6.6v10.1h9.6c3.7,0,6.6-3,6.6-6.6v-3.5c0-3.7-3-6.6-6.6-6.6H232.1
		z"/>
	<path fill="#FFFFFF" d="M146.5,69.7c-4.4,0-8.5-2.5-10.7-6.4c-0.2-0.4-0.1-0.9,0.3-1.1l3.3-1.9c0.1-0.1,0.3-0.1,0.4-0.1
		c0.1,0,0.2,0,0.2,0c0.2,0.1,0.4,0.2,0.5,0.4c1.2,2.2,3.4,3.6,5.9,3.6h2.9c3.7,0,6.6-3,6.6-6.6v-3.7l-0.2,0.1
		c-1.9,1.2-4.2,1.9-6.4,1.9h-2.9c-6.7,0-12.1-5.4-12.1-12.1V23.8c0-6.7,5.4-12.1,12.1-12.1h2.9c6.7,0,12.2,5.5,12.2,12.1v33.7
		c0,6.7-5.5,12.1-12.1,12.1H146.5z M146.5,17.1c-3.7,0-6.6,3-6.6,6.6v19.9c0,3.7,3,6.6,6.6,6.6h2.9c3.7,0,6.6-3,6.6-6.6V23.8
		c0-3.7-3-6.6-6.6-6.6H146.5z"/>
	<path fill="#FFFFFF" d="M81,55.8c-3.3,0-6.3-1.3-8.6-3.6c-2.3-2.4-3.6-5.7-3.6-9.2V23.1c0-2.9,1.3-5.8,3.6-8
		c2.3-2.2,5.4-3.5,8.6-3.5h2.9c6.7,0,12.1,5.5,12.1,12.1v3.4c0,6.8-5.5,12.2-12.1,12.2h-9.6v4.3c0,3.7,3,6.6,6.6,6.6h2.9
		c2.3,0,4.4-1.2,5.6-3.1c0.2-0.2,0.4-0.4,0.7-0.4c0.1,0,0.3,0,0.4,0.1l3.3,1.9c0.2,0.1,0.3,0.3,0.4,0.5c0.1,0.2,0,0.5-0.1,0.7
		c-2.2,3.7-6.1,5.9-10.3,5.9H81z M81,17.2c-3.7,0-6.6,3-6.6,6.6v10.1h9.6c3.7,0,6.6-3,6.6-6.6v-3.5c0-3.7-3-6.6-6.6-6.6H81z"/>
	<path fill="#FFFFFF" d="M212,55.8c-6.7,0-12.2-5.4-12.2-12.1V4.6c0-1.4,1.1-2.5,2.5-2.5h2.1c0.5,0,0.9,0.4,0.9,0.8v8.7h8.2
		c0.5,0,0.8,0.4,0.8,0.8v3.8c0,0.5-0.4,0.8-0.8,0.8h-8.2v26.5c0,3.7,3,6.6,6.6,6.6h3.5c0.5,0,0.8,0.4,0.8,0.8V55
		c0,0.5-0.4,0.8-0.8,0.8H212z"/>
	<path fill="#FFFFFF" d="M113.7,55.8c-6.7,0-12.1-5.4-12.1-12.1V23.8c0-6.7,5.4-12.1,12.1-12.1h2.9c2.3,0,4.5,0.6,6.4,1.8l0.2,0.1
		V4.4h0V2.5c0-1.4,1.1-2.5,2.5-2.5h2.2c0.5,0,0.8,0.4,0.8,0.8v42.8c0,6.7-5.4,12.1-12.1,12.1H113.7z M113.7,17.2
		c-3.7,0-6.6,3-6.6,6.6v19.9c0,3.7,3,6.6,6.6,6.6h2.9c3.7,0,6.6-3,6.6-6.6V23.8c0-3.7-3-6.6-6.6-6.6H113.7z"/>
	<path fill="#FFFFFF" d="M49.6,55.8c-0.5,0-0.8-0.4-0.8-0.8V23.8c0-6.7,5.4-12.1,12.1-12.1h5.2c0.5,0,0.8,0.4,0.8,0.8v2.2
		c0,1.3-1.1,2.4-2.4,2.4h-3.6c-3.7,0-6.6,3-6.6,6.6V55c0,0.5-0.4,0.8-0.8,0.8H49.6z"/>
</g>
<polygon fill="#FFFFFF" points="0,191.7 90.6,83.6 146.5,83.6 "/>
<polygon fill="#FFFFFF" points="0,191.7 49,83.6 80.1,83.6 "/>
<g>
	<path fill="#FFFFFF" d="M141.7,136.8c0.5,10.7,5.7,15.6,15.1,15.6c6.8,0,12.2-4.2,13.3-8H185c-4.8,14.5-14.9,20.7-28.8,20.7
		c-19.4,0-31.4-13.3-31.4-32.3c0-18.4,12.7-32.4,31.4-32.4c20.9,0,31,17.6,29.8,36.5H141.7z M169.2,126.1
		c-1.5-8.6-5.2-13.1-13.4-13.1c-10.7,0-13.8,8.3-14,13.1H169.2z"/>
	<path fill="#FFFFFF" d="M193.1,102h16v8.6h0.4c4.3-6.9,11.6-10.2,18.8-10.2c17.9,0,22.5,10.1,22.5,25.3v37.8h-16.9v-34.7
		c0-10.1-3-15.1-10.8-15.1c-9.1,0-13.1,5.1-13.1,17.6v32.2h-16.9V102z"/>
	<path fill="#FFFFFF" d="M282,102h12.4v11.3H282v30.4c0,5.7,1.4,7.1,7.1,7.1c1.8,0,3.4-0.1,5.2-0.5v13.2c-2.9,0.5-6.5,0.6-9.9,0.6
		c-10.3,0-19.4-2.4-19.4-14.6v-36.2h-10.2V102h10.2V83.6H282V102z"/>
	<path fill="#FFFFFF" d="M357.1,163.4h-16v-8.6h-0.4c-4.3,6.9-11.6,10.2-18.8,10.2c-17.9,0-22.5-10.1-22.5-25.3V102h16.9v34.7
		c0,10.1,3,15.1,10.8,15.1c9.2,0,13.1-5.1,13.1-17.6V102h16.9V163.4z"/>
	<path fill="#FFFFFF" d="M366.9,102h16v11.4h0.2c3.1-7.7,11.4-13.1,19.6-13.1c1.2,0,2.6,0.2,3.7,0.6v15.7c-1.5-0.4-4-0.6-6.1-0.6
		c-12.4,0-16.6,8.9-16.6,19.7v27.7h-16.9V102z"/>
	<path fill="#FFFFFF" d="M422,136.8c0.5,10.7,5.7,15.6,15.1,15.6c6.8,0,12.2-4.2,13.3-8h14.9c-4.8,14.5-14.9,20.7-28.8,20.7
		c-19.4,0-31.4-13.3-31.4-32.3c0-18.4,12.7-32.4,31.4-32.4c20.9,0,31,17.6,29.8,36.5H422z M449.4,126.1c-1.5-8.6-5.2-13.1-13.4-13.1
		c-10.7,0-13.8,8.3-14,13.1H449.4z"/>
	<path fill="#FFFFFF" d="M486.4,143.5c0.1,7.4,6.3,10.3,13,10.3c4.9,0,11.1-1.9,11.1-7.8c0-5.1-7-6.9-19.1-9.5
		c-9.7-2.1-19.5-5.6-19.5-16.4c0-15.7,13.5-19.7,26.7-19.7c13.4,0,25.8,4.5,27.1,19.6h-16c-0.5-6.5-5.5-8.3-11.5-8.3
		c-3.8,0-9.4,0.7-9.4,5.7c0,6.1,9.5,6.9,19.1,9.1c9.9,2.3,19.5,5.8,19.5,17.2c0,16.2-14,21.4-28,21.4c-14.3,0-28.2-5.3-28.9-21.6
		H486.4z"/>
</g>
<polygon fill="#FFFFFF" points="33.2,172.1 118.5,121.7 118.5,110.3 114.5,113.5 114.6,118.8 "/>
</svg>
